# xmcd
#
# Track frame offsets:
#	150
#	15173
#	32901
#	47766
#	60719
#	77922
#	99510
#	112081
#	126423
#	141790
#	162381
#	173377
#	186622
#
# Disc length: 2711 seconds
#
# Revision: 0
# Processed by: cddbd v1.5.2PL0 Copyright (c) Steve Scherf et al.
# Submitted via: audiograbber 1.83.01
#
DISCID=b00a950d
DTITLE=Fataka - Tomboarivo
DYEAR=2010
DGENRE=Blues
TTITLE0=Tomboarivo
TTITLE1=Nagnaiya
TTITLE2=Tsy Mikaiky
TTITLE3=Gasikara
TTITLE4=Chakina
TTITLE5=Balita
TTITLE6=Nahoa Nareo
TTITLE7=Velo
TTITLE8=Drotsy
TTITLE9=Levaly
TTITLE10=Ho Afake
TTITLE11=Pepelako
TTITLE12=Anaro
EXTD=
EXTT0=
EXTT1=
EXTT2=
EXTT3=
EXTT4=
EXTT5=
EXTT6=
EXTT7=
EXTT8=
EXTT9=
EXTT10=
EXTT11=
EXTT12=
PLAYORDER=
